<?xml version="1.0" standalone="no"?><!DOCTYPE svg PUBLIC "-//W3C//DTD SVG 1.1//EN" "http://www.w3.org/Graphics/SVG/1.1/DTD/svg11.dtd"><svg t="1659322288084" class="icon" viewBox="0 0 1024 1024" version="1.1" xmlns="http://www.w3.org/2000/svg" p-id="2899" xmlns:xlink="http://www.w3.org/1999/xlink" width="200" height="200"><defs><style type="text/css">@font-face { font-family: feedback-iconfont; src: url("//at.alicdn.com/t/font_1031158_u69w8yhxdu.woff2?t=1630033759944") format("woff2"), url("//at.alicdn.com/t/font_1031158_u69w8yhxdu.woff?t=1630033759944") format("woff"), url("//at.alicdn.com/t/font_1031158_u69w8yhxdu.ttf?t=1630033759944") format("truetype"); }
</style></defs><path d="M475.733333 145.066667L317.013333 404.48c-17.493333 28.16 2.986667 64.853333 36.266667 64.853333h317.013333c33.28 0 53.76-36.693333 36.266667-64.853333L548.266667 145.066667a42.368 42.368 0 0 0-72.533334 0z" p-id="2900"></path><path d="M746.666667 746.666667m-192 0a192 192 0 1 0 384 0 192 192 0 1 0-384 0Z" p-id="2901"></path><path d="M170.666667 917.333333h256c23.466667 0 42.666667-19.2 42.666666-42.666666v-256c0-23.466667-19.2-42.666667-42.666666-42.666667H170.666667c-23.466667 0-42.666667 19.2-42.666667 42.666667v256c0 23.466667 19.2 42.666667 42.666667 42.666666z" p-id="2902"></path></svg>